# xmcd
#
# Track frame offsets: 
#        150
#        15420
#        37825
#        52100
#        72985
#        90640
#        108675
#        130400
#        147905
#        171075
#        199640
#
# Disc length: 2862 seconds
#
# Revision: 8
# Processed by: cddbd v1.5.2PL0 Copyright (c) Steve Scherf et al.
# Submitted via: ExactAudioCopy v1.0b1
#
DISCID=970b2c0b
DTITLE=מאיר אריאל - ברנרד ולואיז
DYEAR=1997
DGENRE=Folk
TTITLE0=אצל ציון
TTITLE1=גומרים על אופנוען
TTITLE2=היכנסי כבר לאוטו וניסע
TTITLE3=שואף לאפס
TTITLE4=אף אחד לא יודע
TTITLE5=לא יכול להוריד ממך את העיניים
TTITLE6=ברנרד ולואיז
TTITLE7=פצועי אהבתנו
TTITLE8=דלת אחורית
TTITLE9=סוף העולם בלוז
TTITLE10=המרגל שהתרגל
EXTD=YEAR: 1997 ID3G: 40
EXTT0=
EXTT1=
EXTT2=
EXTT3=
EXTT4=
EXTT5=
EXTT6=
EXTT7=
EXTT8=
EXTT9=
EXTT10=
PLAYORDER=
